<svg width="80" height="80" viewBox="0 0 80 80" fill="none" xmlns="http://www.w3.org/2000/svg">
<path d="M10 30V70H70V15H60V17.5C60 18.23 59.7658 18.8292 59.2975 19.2975C58.8292 19.7658 58.23 20 57.5 20C56.77 20 56.1708 19.7658 55.7025 19.2975C55.2342 18.8292 55 18.23 55 17.5V15H25V17.5C25 18.23 24.7658 18.8292 24.2975 19.2975C23.8292 19.7658 23.23 20 22.5 20C21.77 20 21.1708 19.7658 20.7025 19.2975C20.2342 18.8292 20 18.23 20 17.5V15H10V25H70V30H10ZM25 10H55V7.5C55 6.77 55.2342 6.17083 55.7025 5.7025C56.1708 5.23417 56.77 5 57.5 5C58.23 5 58.8292 5.23417 59.2975 5.7025C59.7658 6.17083 60 6.77 60 7.5V10H72.5C73.23 10 73.8292 10.2342 74.2975 10.7025C74.7658 11.1708 75 11.77 75 12.5V72.5C75 73.23 74.7658 73.8292 74.2975 74.2975C73.8292 74.7658 73.23 75 72.5 75H7.5C6.77 75 6.17083 74.7658 5.7025 74.2975C5.23417 73.8292 5 73.23 5 72.5V12.5C5 11.77 5.23417 11.1708 5.7025 10.7025C6.17083 10.2342 6.77 10 7.5 10H20V7.5C20 6.77 20.2342 6.17083 20.7025 5.7025C21.1708 5.23417 21.77 5 22.5 5C23.23 5 23.8292 5.23417 24.2975 5.7025C24.7658 6.17083 25 6.77 25 7.5V10ZM22.5 40H27.5C28.23 40 28.8292 40.2342 29.2975 40.7025C29.7658 41.1708 30 41.77 30 42.5C30 43.23 29.7658 43.8292 29.2975 44.2975C28.8292 44.7658 28.23 45 27.5 45H22.5C21.77 45 21.1708 44.7658 20.7025 44.2975C20.2342 43.8292 20 43.23 20 42.5C20 41.77 20.2342 41.1708 20.7025 40.7025C21.1708 40.2342 21.77 40 22.5 40ZM22.5 55H27.5C28.23 55 28.8292 55.2342 29.2975 55.7025C29.7658 56.1708 30 56.77 30 57.5C30 58.23 29.7658 58.8292 29.2975 59.2975C28.8292 59.7658 28.23 60 27.5 60H22.5C21.77 60 21.1708 59.7658 20.7025 59.2975C20.2342 58.8292 20 58.23 20 57.5C20 56.77 20.2342 56.1708 20.7025 55.7025C21.1708 55.2342 21.77 55 22.5 55ZM37.5 40H42.5C43.23 40 43.8292 40.2342 44.2975 40.7025C44.7658 41.1708 45 41.77 45 42.5C45 43.23 44.7658 43.8292 44.2975 44.2975C43.8292 44.7658 43.23 45 42.5 45H37.5C36.77 45 36.1708 44.7658 35.7025 44.2975C35.2342 43.8292 35 43.23 35 42.5C35 41.77 35.2342 41.1708 35.7025 40.7025C36.1708 40.2342 36.77 40 37.5 40ZM37.5 55H42.5C43.23 55 43.8292 55.2342 44.2975 55.7025C44.7658 56.1708 45 56.77 45 57.5C45 58.23 44.7658 58.8292 44.2975 59.2975C43.8292 59.7658 43.23 60 42.5 60H37.5C36.77 60 36.1708 59.7658 35.7025 59.2975C35.2342 58.8292 35 58.23 35 57.5C35 56.77 35.2342 56.1708 35.7025 55.7025C36.1708 55.2342 36.77 55 37.5 55ZM52.5 40H57.5C58.23 40 58.8292 40.2342 59.2975 40.7025C59.7658 41.1708 60 41.77 60 42.5C60 43.23 59.7658 43.8292 59.2975 44.2975C58.8292 44.7658 58.23 45 57.5 45H52.5C51.77 45 51.1708 44.7658 50.7025 44.2975C50.2342 43.8292 50 43.23 50 42.5C50 41.77 50.2342 41.1708 50.7025 40.7025C51.1708 40.2342 51.77 40 52.5 40ZM52.5 55H57.5C58.23 55 58.8292 55.2342 59.2975 55.7025C59.7658 56.1708 60 56.77 60 57.5C60 58.23 59.7658 58.8292 59.2975 59.2975C58.8292 59.7658 58.23 60 57.5 60H52.5C51.77 60 51.1708 59.7658 50.7025 59.2975C50.2342 58.8292 50 58.23 50 57.5C50 56.77 50.2342 56.1708 50.7025 55.7025C51.1708 55.2342 51.77 55 52.5 55Z" fill="white" fill-opacity="0.96"/>
</svg>
