<svg width="40" height="50" viewBox="0 0 40 50" fill="none" xmlns="http://www.w3.org/2000/svg">
<path d="M36.1407 19.9531C36.03 15.4649 34.4757 11.7224 31.4776 8.72552C28.4796 5.72866 24.7371 4.17432 20.25 4.0625C15.7618 4.17315 12.0193 5.72748 9.02242 8.72552C6.02557 11.7235 4.47123 15.4661 4.35941 19.9531C4.35941 23.2266 5.67421 26.9691 8.30381 31.1807C10.9334 35.3923 14.9155 40.0548 20.25 45.168C25.5834 40.0548 29.5655 35.3923 32.1963 31.1807C34.827 26.9691 36.1418 23.2266 36.1407 19.9531ZM20.25 49.9688C7.30211 38.1979 0.828156 28.1927 0.828156 19.9531C0.975291 14.435 2.86981 9.85552 6.5117 6.2148C10.1536 2.57408 14.733 0.679562 20.25 0.53125C25.7682 0.678385 30.3476 2.5729 33.9884 6.2148C37.6291 9.85669 39.5236 14.4361 39.6719 19.9531C39.6719 28.1927 33.1979 38.1979 20.25 49.9688ZM20.25 25.25C21.7579 25.2135 23.0085 24.6985 24.002 23.7051C24.9954 22.7116 25.4922 21.461 25.4922 19.9531C25.4922 18.4453 24.9954 17.1946 24.002 16.2012C23.0085 15.2077 21.7579 14.711 20.25 14.711C18.7422 14.711 17.4915 15.2077 16.4981 16.2012C15.5046 17.1946 15.0079 18.4453 15.0079 19.9531C15.0079 21.461 15.5046 22.7116 16.4981 23.7051C17.4915 24.6985 18.7422 25.2135 20.25 25.25ZM20.25 28.7813C17.7487 28.7071 15.6706 27.8425 14.0156 26.1875C12.3606 24.5326 11.4961 22.4544 11.4219 19.9531C11.4961 17.4518 12.3606 15.3737 14.0156 13.7187C15.6706 12.0637 17.7487 11.1992 20.25 11.125C22.7513 11.1992 24.8295 12.0637 26.4845 13.7187C28.1394 15.3737 29.004 17.4518 29.0782 19.9531C29.004 22.4544 28.1394 24.5326 26.4845 26.1875C24.8295 27.8425 22.7513 28.7071 20.25 28.7813Z" fill="white"/>
</svg>
