<svg width="70" height="70" viewBox="0 0 70 70" fill="none" xmlns="http://www.w3.org/2000/svg">
<path d="M1.17245 28.75L41.25 68.8275C41.615 69.1925 42.045 69.4142 42.54 69.4925C43.035 69.5708 43.5166 69.5058 43.985 69.2975L63.75 60.86C64.5833 60.495 65.0783 59.8833 65.235 59.025C65.3916 58.1667 65.1575 57.4242 64.5325 56.7975L52.58 44.765C52.1633 44.4 51.6941 44.1658 51.1725 44.0625C50.6508 43.9592 50.1558 44.0375 49.6875 44.2975L44.2175 47.0325L22.9675 25.7825L25.7025 20.3125C25.9625 19.8442 26.0408 19.3492 25.9375 18.8275C25.8341 18.3058 25.6 17.8367 25.235 17.42L13.2025 5.4675C12.5775 4.8425 11.835 4.60833 10.9749 4.765C10.115 4.92167 9.50328 5.41667 9.13995 6.25L0.702449 26.015C0.494116 26.4833 0.429116 26.965 0.507449 27.46C0.585783 27.955 0.80745 28.385 1.17245 28.75ZM5.93745 26.4075L12.265 11.5625L20.4675 19.6875L16.8724 26.7975L43.2 53.125L50.31 49.53L58.435 57.7325L43.59 64.06L5.93745 26.4075ZM35 20V15C40.6766 15.1567 45.39 17.11 49.14 20.86C52.89 24.61 54.8433 29.3233 55 35H50C49.895 30.7283 48.4366 27.1867 45.625 24.375C42.8133 21.5633 39.2716 20.105 35 20ZM35 5V0C44.8966 0.26 53.1391 3.68417 59.7275 10.2725C66.3158 16.8608 69.74 25.1033 70 35H65C64.7916 26.51 61.8616 19.44 56.21 13.79C50.5583 8.14 43.4883 5.21 35 5Z" fill="white" fill-opacity="0.96"/>
</svg>
