<svg width="43" height="39" viewBox="0 0 43 39" fill="none" xmlns="http://www.w3.org/2000/svg">
<path d="M6.49368 3.12953V35.8705H24.3524V3.12953H6.49368ZM5.00545 0.153076H25.8406C26.2752 0.153076 26.6319 0.292473 26.9106 0.571268C27.1894 0.850062 27.3288 1.20674 27.3288 1.6413V37.3587C27.3288 37.7933 27.1894 38.15 26.9106 38.4288C26.6319 38.7076 26.2752 38.847 25.8406 38.847H5.00545C4.57089 38.847 4.21421 38.7076 3.93542 38.4288C3.65662 38.15 3.51722 37.7933 3.51722 37.3587V1.6413C3.51722 1.20674 3.65662 0.850062 3.93542 0.571268C4.21421 0.292473 4.57089 0.153076 5.00545 0.153076ZM9.47013 9.08243H21.3759V12.0589H9.47013V9.08243ZM9.47013 18.0118H21.3759V20.9882H9.47013V18.0118ZM9.47013 26.9411H21.3759V29.9176H9.47013V26.9411ZM27.3288 20.9882H33.2817V23.9647H27.3288V20.9882ZM27.3288 26.9411H33.2817V29.9176H27.3288V26.9411ZM0.540771 35.8705H42.2111V38.847H0.540771V35.8705ZM27.3288 15.0353V35.8705H36.2582V15.0353H27.3288ZM25.8406 12.0589H37.7464C38.181 12.0589 38.5377 12.1983 38.8165 12.4771C39.0953 12.7559 39.2346 13.1125 39.2346 13.5471V37.3587C39.2346 37.7933 39.0953 38.15 38.8165 38.4288C38.5377 38.7076 38.181 38.847 37.7464 38.847H25.8406C25.4061 38.847 25.0494 38.7076 24.7706 38.4288C24.4918 38.15 24.3524 37.7933 24.3524 37.3587V13.5471C24.3524 13.1125 24.4918 12.7559 24.7706 12.4771C25.0494 12.1983 25.4061 12.0589 25.8406 12.0589Z" fill="#076151"/>
</svg>
