<svg width="119" height="115" viewBox="0 0 119 115" fill="none" xmlns="http://www.w3.org/2000/svg">
<path d="M48.8676 114.794C47.1047 114.706 45.6281 114.068 44.4377 112.877C43.2474 111.687 42.6522 110.21 42.6522 108.447C42.6522 106.684 43.2474 105.208 44.4377 104.017C45.6281 102.827 47.1047 102.232 48.8676 102.232C50.6305 102.232 52.1071 102.827 53.2975 104.017C54.4878 105.208 55.0829 106.684 55.0829 108.447C55.0829 110.21 54.4878 111.687 53.2975 112.877C52.1071 114.068 50.6305 114.706 48.8676 114.794ZM91.1777 114.794C89.4147 114.706 87.9381 114.068 86.7478 112.877C85.5575 111.687 84.9623 110.21 84.9623 108.447C84.9623 106.684 85.5575 105.208 86.7478 104.017C87.9381 102.827 89.4147 102.232 91.1777 102.232C92.9406 102.232 94.4172 102.827 95.6075 104.017C96.7979 105.208 97.393 106.684 97.393 108.447C97.393 110.21 96.7979 111.687 95.6075 112.877C94.4172 114.068 92.9406 114.706 91.1777 114.794ZM4.44202 9.01865C3.20657 9.01865 2.19254 8.62235 1.39993 7.82974C0.607318 7.03713 0.211014 6.0231 0.211014 4.78765C0.211014 3.55219 0.607318 2.53816 1.39993 1.74555C2.19254 0.952945 3.20657 0.556641 4.44202 0.556641H25.5971C26.6548 0.556641 27.5588 0.865505 28.3091 1.48323C29.0594 2.10096 29.522 2.9387 29.6969 3.99645L34.1945 25.9469H114.452C115.775 25.9469 116.856 26.4758 117.693 27.5335C118.531 28.5913 118.817 29.7816 118.552 31.1045L105.859 90.3386C105.682 91.3089 105.219 92.1029 104.471 92.7207C103.724 93.3384 102.82 93.6473 101.759 93.6473H42.5253C41.4676 93.6473 40.5635 93.3384 39.8132 92.7207C39.0629 92.1029 38.6003 91.2652 38.4255 90.2074L22.1615 9.02289H4.44202V9.01865ZM45.9609 85.1768H98.3196L109.164 34.4047H35.7811L45.9609 85.1768ZM84.3023 25.9427L72.1381 11.3965L59.974 25.9427H84.3023ZM65.6605 5.97656C67.3359 4.03594 69.4952 3.06563 72.1381 3.06563C74.7811 3.06563 76.9403 4.03594 78.6158 5.97656L102.284 34.4047H41.9922L65.6605 5.97656Z" fill="#076151"/>
</svg>
