<svg width="102" height="119" viewBox="0 0 102 119" fill="none" xmlns="http://www.w3.org/2000/svg">
<path d="M93.3499 42.6024H59.5018V8.75431H8.72971V110.298H93.3499V42.6024ZM89.9143 34.1404L67.9638 12.1899V34.1404H89.9143ZM4.49871 0.292297H67.9638L101.812 34.1404V114.529C101.812 115.765 101.416 116.779 100.623 117.572C99.8303 118.364 98.8163 118.76 97.5809 118.76H4.49871C3.26325 118.76 2.24922 118.364 1.45661 117.572C0.664005 116.779 0.2677 115.765 0.2677 114.529V4.5233C0.2677 3.28785 0.664005 2.27382 1.45661 1.48121C2.24922 0.688601 3.26325 0.292297 4.49871 0.292297ZM46.8088 67.9884V51.0644H55.2708V67.9884H72.1948V76.4504H55.2708V93.3745H46.8088V76.4504H29.8848V67.9884H46.8088Z" fill="#076151"/>
</svg>
