<svg width="119" height="95" viewBox="0 0 119 95" fill="none" xmlns="http://www.w3.org/2000/svg">
<path d="M8.70123 72.9985H4.32802C3.08944 72.9985 2.07284 72.6012 1.27823 71.8066C0.483611 71.012 0.0863037 69.9954 0.0863037 68.7568V5.131C0.0863037 3.89242 0.483611 2.87582 1.27823 2.08121C2.07284 1.28659 3.08944 0.889282 4.32802 0.889282H80.679C81.9175 0.889282 82.9341 1.28659 83.7287 2.08121C84.5234 2.87582 84.9207 3.89242 84.9207 5.131V17.8562H106.791C107.851 17.8562 108.758 18.187 109.51 18.8487C110.262 19.5104 110.726 20.3715 110.901 21.4319L118.061 68.0908C118.239 69.4171 117.909 70.5666 117.069 71.5393C116.229 72.5121 115.191 72.9985 113.955 72.9985H101.76C102.114 76.7114 101.517 80.1797 99.9703 83.4034C98.4235 86.6271 96.082 89.2344 92.946 91.2252C89.81 93.2159 86.4293 94.2099 82.804 94.2071C79.1788 94.2043 75.7981 93.2103 72.6621 91.2252C69.5261 89.24 67.1846 86.6328 65.6378 83.4034C64.091 80.1741 63.4943 76.7058 63.8478 72.9985H46.6137C46.9672 76.7114 46.3705 80.1797 44.8237 83.4034C43.2769 86.6271 40.9355 89.2344 37.7994 91.2252C34.6634 93.2159 31.2827 94.2099 27.6575 94.2071C24.0322 94.2043 20.6516 93.2103 17.5155 91.2252C14.3795 89.24 12.0381 86.6328 10.4912 83.4034C8.94443 80.1741 8.34776 76.7058 8.70123 72.9985ZM11.751 64.5151C13.6061 61.8626 15.9037 59.7855 18.6438 58.284C21.384 56.7824 24.3885 56.0316 27.6575 56.0316C30.9264 56.0316 33.931 56.7824 36.6711 58.284C39.4113 59.7855 41.7089 61.8626 43.5639 64.5151H66.8934C69.28 61.068 72.4613 58.5936 76.4372 57.092V9.37272H8.56974V64.5151H11.751ZM98.7063 64.5151H108.912L106.392 47.5482H84.9164V56.1631C87.7442 56.5166 90.3515 57.4003 92.7382 58.8142C95.1248 60.2281 97.1128 62.1284 98.702 64.5151H98.7063ZM105.069 39.0647L103.079 26.3396H84.9207V39.0647H105.069ZM82.7998 85.7236C85.8058 85.636 88.3027 84.5982 90.2907 82.6102C92.2786 80.6223 93.2726 78.1253 93.2726 75.1194C93.2726 72.1134 92.2786 69.6164 90.2907 67.6285C88.3027 65.6405 85.8058 64.6465 82.7998 64.6465C79.7938 64.6465 77.2969 65.6405 75.3089 67.6285C73.321 69.6164 72.327 72.1134 72.327 75.1194C72.327 78.1253 73.321 80.6223 75.3089 82.6102C77.2969 84.5982 79.7938 85.636 82.7998 85.7236ZM27.6575 85.7236C30.6634 85.636 33.1604 84.5982 35.1483 82.6102C37.1363 80.6223 38.1303 78.1253 38.1303 75.1194C38.1303 72.1134 37.1363 69.6164 35.1483 67.6285C33.1604 65.6405 30.6634 64.6465 27.6575 64.6465C24.6515 64.6465 22.1546 65.6405 20.1666 67.6285C18.1786 69.6164 17.1847 72.1134 17.1847 75.1194C17.1847 78.1253 18.1786 80.6223 20.1666 82.6102C22.1546 84.5982 24.6515 85.636 27.6575 85.7236Z" fill="#076151"/>
</svg>
