<svg width="102" height="115" viewBox="0 0 102 115" fill="none" xmlns="http://www.w3.org/2000/svg">
<path d="M51.0398 59.6585C58.2692 59.4808 64.2632 57.0127 69.0216 52.2543C73.7801 47.4958 76.2482 41.5019 76.4259 34.2725C76.2482 27.0431 73.7801 21.0492 69.0216 16.2907C64.2632 11.5322 58.2692 9.06415 51.0398 8.88645C43.8105 9.06415 37.8165 11.5322 33.0581 16.2907C28.2996 21.0492 25.8315 27.0431 25.6538 34.2725C25.8315 41.5019 28.2996 47.4958 33.0581 52.2543C37.8165 57.0127 43.8105 59.4808 51.0398 59.6585ZM51.0398 68.1205C41.4326 67.8554 33.4558 64.5496 27.1093 58.2031C20.7628 51.8566 17.4569 43.8797 17.1918 34.2725C17.4569 24.6653 20.7628 16.6884 27.1093 10.3419C33.4558 3.99541 41.4326 0.689582 51.0398 0.424438C60.6471 0.689582 68.6239 3.99541 74.9704 10.3419C81.3169 16.6884 84.6228 24.6653 84.8879 34.2725C84.6228 43.8797 81.3169 51.8566 74.9704 58.2031C68.6239 64.5496 60.6471 67.8554 51.0398 68.1205ZM93.3499 110.431V97.7376C93.2625 94.1243 92.0284 91.1273 89.6478 88.7467C87.2671 86.3661 84.2702 85.132 80.6569 85.0446H21.4228C17.8095 85.132 14.8126 86.3661 12.4319 88.7467C10.0513 91.1273 8.81722 94.1243 8.72978 97.7376V110.431C8.72978 111.666 8.33347 112.68 7.54086 113.473C6.74825 114.265 5.73422 114.662 4.49877 114.662C3.26331 114.662 2.24928 114.265 1.45667 113.473C0.664066 112.68 0.267761 111.666 0.267761 110.431V97.7376C0.445464 91.7437 2.51725 86.7638 6.48311 82.7979C10.449 78.832 15.4289 76.7603 21.4228 76.5826H80.6569C86.6508 76.7603 91.6307 78.832 95.5966 82.7979C99.5624 86.7638 101.634 91.7437 101.812 97.7376V110.431C101.812 111.666 101.416 112.68 100.623 113.473C99.8304 114.265 98.8164 114.662 97.5809 114.662C96.3455 114.662 95.3314 114.265 94.5388 113.473C93.7462 112.68 93.3499 111.666 93.3499 110.431Z" fill="#076151"/>
</svg>
