<svg width="102" height="119" viewBox="0 0 102 119" fill="none" xmlns="http://www.w3.org/2000/svg">
<path d="M93.3499 42.7345H59.5019V8.88645H8.72978V110.431H93.3499V42.7345ZM89.9143 34.2725L67.9639 12.322V34.2725H89.9143ZM4.49877 0.424438H67.9639L101.812 34.2725V114.662C101.812 115.897 101.416 116.911 100.623 117.704C99.8304 118.496 98.8164 118.893 97.5809 118.893H4.49877C3.26331 118.893 2.24928 118.496 1.45667 117.704C0.664066 116.911 0.267761 115.897 0.267761 114.662V4.65545C0.267761 3.41999 0.664066 2.40596 1.45667 1.61335C2.24928 0.820742 3.26331 0.424438 4.49877 0.424438ZM25.6538 59.6585H76.4259V68.1206H25.6538V59.6585ZM25.6538 34.2725H46.8088V42.7345H25.6538V34.2725ZM25.6538 85.0446H76.4259V93.5066H25.6538V85.0446Z" fill="#076151"/>
</svg>
